<svg id="wordmark-white" data-name="wordmark-white" xmlns="http://www.w3.org/2000/svg" viewBox="0 0 1280 300"><defs><style>.cls-1{fill:#fff}</style></defs><path class="cls-1" d="M1193.38 150.57c17.95 19.94 34.36 39.61 52.43 57.6 8.24 8.2 19.8 13 29.78 19.51a34.69 34.69 0 014.41 4.1c-2 1.12-4.06 3.25-6 3.19-15.22-.48-29.89-3.35-40.4-15.63-14.94-17.47-29.66-35.14-43.87-53.21-10.67-13.56-10.24-13.89-28.18-11.11 0 13.06-.24 26.24.25 39.39.07 2 3.56 3.82 5.42 5.77s3.84 4.14 5.76 6.22c-.57 1-1.13 2-1.69 2.94-12.22 0-24.44.17-36.65-.18-1.85-.06-3.63-2.57-5.44-3.95 1.3-1.5 2.41-4.06 3.94-4.35 10.27-2 12.09-8.92 12-18-.33-26-.06-52-.63-77.95-.08-3.68-3.47-7.29-5.37-10.92-.79-1.51-2.56-3.16-2.29-4.41a5.19 5.19 0 013.83-3.12c17.74-.75 35.55-2.4 53.2-1.36 12.55.74 23 7.95 25.5 21.68 2.59 14-.4 26.57-12.79 35.34-3.47 2.47-7.1 4.56-13.21 8.45zm-17.32-58.82c-14.63-.09-16 1.3-16.13 15.9q-.06 10.18 0 20.37c.12 19.48 1.14 20.3 20.33 16.73 15.76-2.93 24.39-14.93 22.86-31.83-1.26-14.14-10.12-21.07-27.06-21.17zM833.36 203.28c11.92-2.41 12.78-9.18 12.64-17.46-.37-23 0-46.09-.49-69.12-.18-8.28 2.52-18-7.47-23.55-.09 0 2.09-6.39 3.35-6.44 22.85-.91 46-3.94 68.51-1.2 35.3 4.29 53.85 28.87 52.31 63.18-1.41 31.54-26.27 57.67-59.22 60.08-20.88 1.53-42 .66-62.94.31-2.26-.08-4.46-3.78-6.69-5.8zm28.2-61.94h-.12c0 8.44-.07 16.88 0 25.31.31 31.14 3.82 34.44 34.86 32.94 27.14-1.32 44.93-17.77 47.1-43.56 2.67-31.66-11.41-54.67-38.33-59.93-11.88-2.32-24.39-1.41-36.62-1.82-5.48-.19-7.05 3-7 8.12.24 12.98.11 25.96.11 38.94zM1114.29 144.52c-.1 39.48-27.7 67.63-66.16 67.48-41.44-.17-66.35-24.39-66.42-64.58-.06-38.87 27.35-65 68.1-64.94 39.11.06 64.58 24.57 64.48 62.04zm-17.39 3.87c-.3-5.27-.34-8.52-.68-11.74-2.6-24.1-21.41-41.55-47-43.66-22.33-1.85-42.46 11.91-47.28 34.48a91 91 0 00-.62 33.56c4 23.12 25.79 40.11 49.26 40.45 21.56.31 38.49-14.39 44.26-38.77 1.24-5.31 1.57-10.85 2.06-14.32zM132.33 144.76C132.16 184.3 104.48 212.37 66 212c-42.12-.42-66.32-24.54-66-65.78.3-38.29 27.68-63.9 68.16-63.74 39.15.15 64.34 24.59 64.17 62.28zM115 147.08h-.39c0-2.92.22-5.85 0-8.74C112.45 113.53 94 95.59 68 93.08c-22.37-2.17-42.36 11.44-47.95 33.69a83.09 83.09 0 00-2.32 25c1.68 27.3 23.18 48.54 49.26 49.66 24 1 42.56-16.14 47.11-43.69.61-3.51.61-7.11.9-10.66zM510.12 82.47c39 0 65 24.75 64.94 61.84C575 183.57 547.21 212 508.84 212c-41.42 0-66.35-24-66.66-64.36-.3-38.76 27.25-65.18 67.94-65.17zm47.69 63.86c-.62-5-.95-9.49-1.8-13.93-4.34-22.77-24.47-39.08-48.66-39.56-22.59-.46-41 13.83-45.6 36.92a89.83 89.83 0 00-.73 28c2.92 23.87 24.58 42.81 48.59 43.71 22.15.83 40-13.93 45.74-38.2 1.34-5.67 1.7-11.55 2.46-16.94zM381.58 148.76c17.36 21.25 29.71 45.47 57.53 57.17-2.65 2-4.59 4.64-6.49 4.62-10-.14-20.42-.42-27.65-8.93-9.85-11.59-20.17-22.94-28.62-35.52-7-10.38-14.11-16.48-27.78-10.47 0 12.46-.24 25.94.27 39.39.07 1.86 4 3.46 5.88 5.38 1.61 1.6 2.92 3.49 4.37 5.25-1.92 1.13-3.8 3.16-5.76 3.24-10.33.41-20.68.52-31 .27-2 0-4-2.13-6-3.27 1.65-1.89 3-5 5-5.46 8.3-1.82 10.78-7.07 10.72-14.84-.22-27.25-.07-54.51-.62-81.76-.06-3.31-3.52-6.54-5.39-9.83-.84-1.49-2.49-3.22-2.19-4.46a5.23 5.23 0 013.92-3c17.4-.79 34.85-2.37 52.2-1.57 14.33.67 24.1 10.15 26.57 21.83 3.2 15.14-2.64 29.35-15.3 37-2.54 1.4-5.17 2.62-9.66 4.96zM347 119.09h.29c0 6.79-.37 13.6.2 20.34.19 2.22 2.41 5.59 4.34 6.14 21.77 6.23 41.86-12.62 38-35.34-2.29-13.57-13.25-19.78-32.34-18.34-9.66.73-10.5 2.29-10.51 19.44zM778.65 209.17c.41-3 .31-6.27 1-6.42 11.21-2.74 5.95-10.28 4.44-16.06-7.36-28.26-7.48-28.07-36.7-26.31-6.07.37-9.61 2.54-11.25 8.4-1.3 4.67-3 9.24-4.62 13.82-3 8.37-7.64 17.18 6.72 19.82 1.14.21 1.72 3.46 3.16 6.59h-43.61c2.08-3.3 3.4-7.72 5.32-8 8.2-1.21 11.33-6.9 13.73-13.45 10.81-29.51 21.87-58.94 32-88.67 3.22-9.42 8.79-14.59 19-17.27 1.6 4 3.51 8 4.74 12.15 9 30.46 18 60.92 26.71 91.46 2.11 7.38 5.53 12.9 13.2 15.42 1.81.6 2.94 3.26 4.38 5-1.93 1.19-3.84 3.33-5.81 3.4-10.23.3-20.56.12-32.41.12zm-36.12-58.25h31c-4.54-17.07-8.77-33-13-48.88l-1.88-.12c-5.21 15.78-10.4 31.57-16.12 49zM647.46 180.13c11.4-25.77 21.91-49.45 32.36-73.15 2.55-5.79 4.35-11.29-4.62-13.41-1.25-.3-2.39-3.35-2.51-5.2-.05-.75 2.76-2.41 4.28-2.43 12.22-.21 24.45-.12 36.67-.12l1.64 2.93c-2 1.87-3.93 5.28-5.95 5.33-9 .21-13.13 5.78-16.34 13q-20.25 45.27-40.53 90.53c-1.19 2.66-2 5.55-3.41 8-1.21 2.07-3.15 3.71-4.76 5.55-1.65-2.09-4-3.92-4.85-6.29-6.71-18.59-12.93-37.36-19.74-55.92-4.91-13.38-10.41-26.55-15.77-39.77-3.28-8.08-8.72-13.31-17.94-14.35-2.3-.26-4.29-3.35-6.42-5.14 2.51-1.29 5-3.62 7.52-3.68q20.37-.51 40.75.12c2.11.06 4.14 2.58 6.21 4-1.68 1.5-3.22 4.13-5 4.33-10.72 1.22-11.34 6.67-7.92 15.45 8.75 22.55 17.03 45.33 26.33 70.22zM268.51 209.56c-15.9 0-32.34.19-48.76-.24-2.14 0-4.2-3.29-7.47-6 21.4-5.56 21.75-5.68 22-25.72.26-25.93.06-51.87.06-79-18 .31-36.2-3.68-50.75 11.9l-2.23-1.8c2.09-7.85 3.89-15.8 6.59-23.43.42-1.19 5.13-1.64 7.59-1.14 4.85 1 9.55 4.29 14.24 4.16 28.66-.78 57.3-2.23 85.94-3.52 4.78-.22 7.76.94 6.27 6.57-.82 3.14-1.45 6.34-2.53 9.38-1.14 3.2-2.71 6.24-4.09 9.35-1.7-2.62-3.09-5.55-5.2-7.78-1.64-1.72-4.16-3.56-6.34-3.63-10.91-.37-21.84-.17-34.36-.17v20.25c.15 22.07.73 44.16.32 66.22-.18 9.66 2.62 14.71 12.79 14.87 4.84.08 9.24 1.78 5.93 9.73z"/><path class="cls-1" d="M1059.07 148.94c-5.22 3.78-8.61 8-11 7.48-3-.66-7.07-5.08-7.16-8-.09-2.57 4.45-7.11 7.32-7.43 2.63-.29 5.77 3.95 10.84 7.95zM519.77 148.77c-5 3.77-8.29 8-10.89 7.65-2.81-.39-6.82-5-6.94-7.94-.12-2.57 4.33-7.35 6.93-7.47 2.85-.14 5.89 3.99 10.9 7.76zM436 33.19a2.87 2.87 0 002.4-.85 4.2 4.2 0 00.79-2.34c.07-1 .11-2.15.11-3.45v-12.4-1.75a11.36 11.36 0 01.19-1.79c-.67 0-1.33.06-2 .08l-2 .08V8.54h1.74a8.17 8.17 0 003.32-.46 6.85 6.85 0 001.54-1h1.62c.07.58.13 1.3.16 2.15s.08 1.93.12 3.24a12.26 12.26 0 012.29-2.67 13.78 13.78 0 013.27-2.17 8.72 8.72 0 013.82-.87 4.69 4.69 0 012.74.81 3 3 0 011.17 2.61 2.61 2.61 0 01-.28 1.06 2.71 2.71 0 01-.89 1.09 2.62 2.62 0 01-1.62.47 2.61 2.61 0 01-2.51-3 5.7 5.7 0 00-2.88.71 10.37 10.37 0 00-2.77 2.09 15.32 15.32 0 00-2.29 3.13l.06 13.38v1.93a11.29 11.29 0 01-.2 1.77l1.77-.08 1.75-.08v2.23H436zM484.49 35.69a13.8 13.8 0 01-7-1.77 12.72 12.72 0 01-4.89-5 15.61 15.61 0 01-1.79-7.65 15 15 0 011.76-7.12 14.17 14.17 0 014.95-5.36 13.36 13.36 0 017.37-2 12.84 12.84 0 014.39.73 10 10 0 013.6 2.23 10.29 10.29 0 012.46 3.75 14.33 14.33 0 01.9 5.31l-19.67.33a26 26 0 00.92 7.26 9.6 9.6 0 003 4.84 8.06 8.06 0 005.31 1.71 11.33 11.33 0 003.55-.59 14.29 14.29 0 003.38-1.64 10 10 0 002.51-2.28l1.34 1.09a12.35 12.35 0 01-3.58 3.6 15.51 15.51 0 01-4.36 2 16 16 0 01-4.15.56zm-7.71-18.88H491a12.33 12.33 0 00-.58-3.78 6.53 6.53 0 00-1.93-3A5.16 5.16 0 00485 8.87a7.9 7.9 0 00-5.39 1.87q-2.17 1.89-2.83 6.07zM523.87 35.69a15.51 15.51 0 01-5-.74 15.3 15.3 0 01-3.57-1.65l.22 1.9h-2.32l-.33-9.36h1.73a7.69 7.69 0 001.29 4 8.1 8.1 0 003 2.75 8.36 8.36 0 004 1 9.24 9.24 0 002.85-.46 5.78 5.78 0 002.34-1.42 3.25 3.25 0 001-2.42 3.58 3.58 0 00-.93-2.53 8.3 8.3 0 00-2.49-1.76 30.34 30.34 0 00-3.24-1.41c-1.11-.44-2.23-.89-3.35-1.36a17.4 17.4 0 01-3.1-1.69 7.56 7.56 0 01-2.26-2.39 6.76 6.76 0 01-.84-3.49 8.29 8.29 0 01.44-2.5 7.69 7.69 0 011.51-2.58 7.9 7.9 0 012.91-2 12.12 12.12 0 014.69-.78 12.92 12.92 0 013.35.49 9.82 9.82 0 013.58 1.85L529.24 7h2.35v9.52h-1.79a10.69 10.69 0 00-.9-3.67 7.44 7.44 0 00-2.29-2.94 6.19 6.19 0 00-3.91-1.17 6 6 0 00-4 1.25 3.72 3.72 0 00-1.45 2.88 3.85 3.85 0 001.09 2.81 9.65 9.65 0 002.82 1.93c1.15.54 2.38 1.07 3.68 1.57s2.8 1.22 4.14 1.91a10.48 10.48 0 013.3 2.58 6.11 6.11 0 011.28 4 7 7 0 01-1.43 4.52 8.41 8.41 0 01-3.63 2.64 12.81 12.81 0 01-4.63.86zM560 35.69a10.51 10.51 0 01-2.63-.35 6.08 6.08 0 01-2.52-1.34 7 7 0 01-1.81-3 16.75 16.75 0 01-.67-5.25l.11-15.78-4.3.06V7.62a5.77 5.77 0 003-1.06 10.29 10.29 0 002.71-2.75A10.62 10.62 0 00555.5 0h1.9v7.62h9.38v2.12l-9.38.11-.12 15.15a17.72 17.72 0 00.42 4.16 5 5 0 001.37 2.59 3.51 3.51 0 002.46.87 5.36 5.36 0 002.93-.87 8.39 8.39 0 002.43-2.4l1.51 1.2a14.59 14.59 0 01-2.4 2.8 9.87 9.87 0 01-2.32 1.55 7.58 7.58 0 01-2.06.65 12.07 12.07 0 01-1.62.14zM599.24 34.82c-.11-.62-.18-1.16-.22-1.63s-.09-1-.17-1.47a15.54 15.54 0 01-4.1 2.91 10.64 10.64 0 01-4.67 1.06q-4.25 0-6.31-1.88a6 6 0 01-2.07-4.59 6.38 6.38 0 011.59-4.33 12 12 0 014.14-3 23.68 23.68 0 015.57-1.73 27.67 27.67 0 015.78-.52v-3.37a17.86 17.86 0 00-.34-3.59A5.12 5.12 0 00597 9.9a5.17 5.17 0 00-3.57-1.14 8.34 8.34 0 00-3.33.6 4.43 4.43 0 00-2.48 2.23 2.08 2.08 0 01.58 1 4.25 4.25 0 01.14 1.07 2.75 2.75 0 01-.56 1.49 2.05 2.05 0 01-2 .79 2.13 2.13 0 01-1.79-.79 3 3 0 01-.61-1.88A4.61 4.61 0 01584.8 10a9.86 9.86 0 013.94-2.34 17.37 17.37 0 015.7-.87c3.13 0 5.44.8 6.93 2.42s2.21 4.16 2.18 7.64V29.09q0 .87-.06 1.74c0 .58-.09 1.24-.16 2l2-.11 2-.11v2.29zm-.5-13.33a25.06 25.06 0 00-4 .46 16.31 16.31 0 00-3.86 1.23 7.9 7.9 0 00-2.88 2.15 4.65 4.65 0 00-1 3.23 3.92 3.92 0 001.37 3 4.62 4.62 0 003 1 9 9 0 004-.84 15.32 15.32 0 003.38-2.37c0-.4-.06-.84-.06-1.31V26.6v-1.74c.04-.98.05-2.1.05-3.37zM633.71 35.69a10.57 10.57 0 01-5.05-1.09 6.76 6.76 0 01-3.07-3.7 19.65 19.65 0 01-1-7.07v-9.68-1.75a12.68 12.68 0 01.19-1.79c-.63 0-1.27.06-1.92.08l-1.93.08V8.54h1.73a9.56 9.56 0 003.49-.46 6.12 6.12 0 001.71-1h1.62v16.6c0 3.12.45 5.45 1.37 7s2.46 2.29 4.66 2.25a7.78 7.78 0 004-1.27 10.71 10.71 0 003.1-2.91v-14q0-1.31.06-2.25a16.63 16.63 0 01.22-1.88c-.67 0-1.34.06-2 .08l-2 .08V8.54h1.73a9.56 9.56 0 003.49-.46 6.12 6.12 0 001.71-1h1.62l-.06 20.57v2.45c0 1.06-.1 1.94-.17 2.66l2-.11 2-.11v2.29h-8c-.11-.62-.19-1.2-.25-1.74s-.1-1-.14-1.53a16.35 16.35 0 01-4.19 2.92 11 11 0 01-4.92 1.21zM666.45 33.19a2.91 2.91 0 002.41-.85 4.27 4.27 0 00.78-2.34c.07-1 .11-2.15.11-3.45v-12.4-1.75a12.68 12.68 0 01.19-1.79c-.67 0-1.33.06-2 .08l-2 .08V8.54h1.73a8.17 8.17 0 003.32-.46 6.85 6.85 0 001.54-1h1.62c.07.58.13 1.3.17 2.15s.07 1.93.11 3.24a12.26 12.26 0 012.29-2.67 13.78 13.78 0 013.27-2.17 8.73 8.73 0 013.83-.87 4.68 4.68 0 012.73.81 3 3 0 011.18 2.61 2.79 2.79 0 01-.28 1.06 2.82 2.82 0 01-.9 1.09 2.62 2.62 0 01-1.62.47 2.53 2.53 0 01-2-1 2.59 2.59 0 01-.56-2.09 5.73 5.73 0 00-2.88.71 10.17 10.17 0 00-2.76 2.09 15 15 0 00-2.29 3.13l.05 13.38v1.93a12.56 12.56 0 01-.19 1.77l1.76-.08 1.76-.08v2.23h-11.37zM718.41 34.82c-.11-.62-.18-1.16-.22-1.63s-.09-1-.17-1.47a15.54 15.54 0 01-4.1 2.91 10.64 10.64 0 01-4.67 1.06c-2.83 0-4.94-.63-6.31-1.88a6 6 0 01-2.07-4.59 6.38 6.38 0 011.59-4.33 12 12 0 014.14-3 23.68 23.68 0 015.53-1.74 27.67 27.67 0 015.78-.52v-3.36a17.86 17.86 0 00-.34-3.59 5.12 5.12 0 00-1.45-2.78 5.17 5.17 0 00-3.57-1.14 8.34 8.34 0 00-3.33.6 4.43 4.43 0 00-2.48 2.23 2.08 2.08 0 01.58 1 4.25 4.25 0 01.14 1.07 2.75 2.75 0 01-.56 1.49 2.05 2.05 0 01-1.95.79 2.13 2.13 0 01-1.79-.79 3 3 0 01-.61-1.88A4.61 4.61 0 01704 10a9.86 9.86 0 013.94-2.34 17.37 17.37 0 015.7-.87c3.13 0 5.44.8 6.93 2.42s2.21 4.16 2.18 7.64V29.09q0 .87-.06 1.74c0 .58-.09 1.24-.16 2l2-.11 2-.11v2.29zm-.5-13.33a25.06 25.06 0 00-4 .46 16.31 16.31 0 00-3.86 1.23 7.9 7.9 0 00-2.85 2.15 4.65 4.65 0 00-1 3.23 3.92 3.92 0 001.37 3 4.62 4.62 0 003 1 9 9 0 004-.84 15.32 15.32 0 003.38-2.37c0-.4-.06-.84-.06-1.31V26.6v-1.74c.01-.98.02-2.1.02-3.37zM741.43 34.82v-1.63a2.87 2.87 0 002.4-.85 4.2 4.2 0 00.79-2.34c.07-1 .11-2.15.11-3.45v-12.4-1.75a12.73 12.73 0 01.2-1.79l-2 .11-2 .11V8.54a23 23 0 003.72-.22 6.43 6.43 0 001.87-.54 4.2 4.2 0 001-.71h1.62q.06.39.09.87c0 .33 0 .69.08 1.09s.06.85.06 1.36a17 17 0 012.71-1.85 15.56 15.56 0 013.12-1.3 11.33 11.33 0 013.27-.49c3.24 0 5.61 1 7.1 3s2.23 5 2.23 9.22v12.01a12.63 12.63 0 01-.2 1.77l1.76-.08 1.76-.08v2.23h-11.4v-1.63a2.91 2.91 0 002.41-.85A4.27 4.27 0 00763 30c.07-1 .11-2.15.11-3.45v-7.62c0-3.12-.57-5.47-1.59-7.07a5.21 5.21 0 00-4.84-2.34 9.28 9.28 0 00-3.94 1 10.3 10.3 0 00-3.21 2.51 7.15 7.15 0 01.06 1v1.14l-.06 13.87v1.93a11.24 11.24 0 01-.19 1.77l1.76-.08 1.76-.08v2.23zM796.52 35.69a10.57 10.57 0 01-2.63-.35 6 6 0 01-2.48-1.34 7 7 0 01-1.82-3 16.75 16.75 0 01-.67-5.25L789 9.9l-4.3.06V7.62a5.74 5.74 0 003-1.06 10.15 10.15 0 002.71-2.75A10.62 10.62 0 00792.05 0H794v7.62h9.39v2.12l-9.39.11-.16 15.15a17.72 17.72 0 00.42 4.16 5 5 0 001.37 2.59 3.48 3.48 0 002.45.87 5.39 5.39 0 002.94-.87 8.65 8.65 0 002.43-2.4l1.51 1.2a14.27 14.27 0 01-2.44 2.83 10 10 0 01-2.31 1.55 7.75 7.75 0 01-2.07.65 11.81 11.81 0 01-1.62.11zM832.33 35.69a13.74 13.74 0 01-7-1.77 12.72 12.72 0 01-4.89-5 15.61 15.61 0 01-1.79-7.65 15 15 0 011.76-7.12 14.06 14.06 0 014.94-5.36 13.39 13.39 0 017.38-2 12.82 12.82 0 014.38.73 10.08 10.08 0 013.61 2.23 10.55 10.55 0 012.46 3.75 14.55 14.55 0 01.89 5.31l-19.67.33a25.6 25.6 0 00.93 7.26 9.59 9.59 0 003 4.84 8.06 8.06 0 005.31 1.71 11.24 11.24 0 003.55-.59 14.1 14.1 0 003.38-1.64 10 10 0 002.51-2.28l1.35 1.09a12.26 12.26 0 01-3.64 3.64 15.33 15.33 0 01-4.35 2 16 16 0 01-4.11.52zm-7.71-18.88h14.25a12.34 12.34 0 00-.59-3.78 6.45 6.45 0 00-1.93-3 5.14 5.14 0 00-3.52-1.17 7.91 7.91 0 00-5.39 1.87q-2.14 1.9-2.82 6.08zM525.2 281.23a8.49 8.49 0 00-2.57-5.57 7.93 7.93 0 00-5.57-2 9 9 0 00-3.89.86A9.55 9.55 0 00510 277a11.82 11.82 0 00-2.15 3.84 15.42 15.42 0 00-.78 5.07 13.62 13.62 0 001.41 6.32 10.8 10.8 0 003.79 4.27 9.65 9.65 0 005.28 1.52 12 12 0 005-1.12 10.21 10.21 0 004-3.26l1 .8a13.61 13.61 0 01-3.64 3.47 12.61 12.61 0 01-3.89 1.65 16.28 16.28 0 01-3.54.44 13.64 13.64 0 01-5.37-1 12.54 12.54 0 01-4.23-2.87 13 13 0 01-2.74-4.31 14.65 14.65 0 01-.95-5.31 16.67 16.67 0 01.84-5.25 14.18 14.18 0 012.52-4.61 12.15 12.15 0 014.24-3.28 13.8 13.8 0 016-1.22 14.69 14.69 0 014.14.57 14.12 14.12 0 013.76 1.76l-.2-2.06h2.11v8.84zM559 300a15.29 15.29 0 01-6.38-1.22 11.91 11.91 0 01-4.32-3.25 13.51 13.51 0 01-2.44-4.52 16.1 16.1 0 01-.79-4.95 15.12 15.12 0 01.83-4.85 13.74 13.74 0 012.52-4.52 12.67 12.67 0 014.26-3.31 13.46 13.46 0 016-1.26 14.2 14.2 0 016.22 1.26 12.45 12.45 0 014.32 3.33 14.52 14.52 0 012.55 4.52 14.71 14.71 0 01.84 4.83 15.35 15.35 0 01-.82 4.82 14.1 14.1 0 01-2.53 4.53 12.59 12.59 0 01-4.24 3.33A13.4 13.4 0 01559 300zm.08-1.56a8.53 8.53 0 004.22-1 8.9 8.9 0 003-2.7A12.5 12.5 0 00568 291a15 15 0 00.61-4.17 17.09 17.09 0 00-.67-4.69 14.59 14.59 0 00-2-4.23 10.33 10.33 0 00-3.19-3.06 8.08 8.08 0 00-4.32-1.16 8.57 8.57 0 00-4.25 1 9.27 9.27 0 00-3 2.73 12.87 12.87 0 00-1.8 3.77 15 15 0 00-.6 4.21 17.32 17.32 0 00.6 4.38 15.58 15.58 0 001.86 4.26 10.2 10.2 0 003.17 3.2 8.3 8.3 0 004.59 1.2zM599.35 274a2.76 2.76 0 00-2 .65 2.5 2.5 0 00-.62 1.63q-.06 1-.06 2.4v17.96a9.71 9.71 0 01-.1 1.24l1.41-.08 1.41-.07v1.67h-8.8v-1.26a3 3 0 002-.66 2.53 2.53 0 00.61-1.64c0-.7.06-1.49.06-2.38V277v-1.47c0-.47.06-.89.08-1.27l-1.41.07-1.4.08v-1.68h8.8zM632.86 299.77c-1.15-2.54-2.3-5.07-3.48-7.6s-2.32-5.08-3.44-7.67c-.37-.81-.72-1.63-1.07-2.46s-.7-1.65-1-2.49-.66-1.68-1-2.51v1.67c0 .92-.06 2-.1 3.3s-.08 2.65-.13 4.11-.09 2.92-.12 4.38-.05 2.84-.08 4.13l-.06 1.68c0 .55 0 1.08-.09 1.56l1.46-.08 1.47-.07v1.67h-7.47v-1.26a2.84 2.84 0 001.78-.51 2.11 2.11 0 00.72-1.28 11.14 11.14 0 00.2-1.71l.74-17.37c0-.5 0-1 .06-1.52s0-1 .06-1.48l-1.41.05c-.47 0-.94 0-1.41.06v-1.64h6l6.73 15.12c.34.76.67 1.52 1 2.29s.66 1.52 1 2.28.69 1.54 1 2.32h.08c.29-.68.63-1.5 1-2.45s.71-1.77 1-2.46c1.14-2.79 2.34-5.59 3.57-8.4s2.46-5.7 3.66-8.7h5.79V274a2.65 2.65 0 00-1.6.36 2.25 2.25 0 00-.9 1.31 7.47 7.47 0 00-.2 2.48l1 17.33a10.9 10.9 0 01.08 1.25v1.11c.46 0 .94 0 1.42-.06h1.43v1.67h-8.76v-1.26a2.69 2.69 0 001.8-.57 2.4 2.4 0 00.72-1.52 13.36 13.36 0 00.06-2.44l-.79-12.66c0-.4-.05-.81-.08-1.21s0-.82-.08-1.22 0-.82-.08-1.22c-.07.18-.16.37-.25.57a5.49 5.49 0 00-.25.65l-8.84 21.2zM668.49 299.39v-1.26a2.68 2.68 0 002-.66 2.74 2.74 0 00.61-1.72q.06-1.08.06-2.49v-16-1.77c0-.5 0-.9.08-1.23l-1.41.07-1.41.08v-1.68l4.32-.05h4.52a13.67 13.67 0 017.1 1.56 5.23 5.23 0 012.48 4.95 4.79 4.79 0 01-.72 2.44 6.78 6.78 0 01-2.15 2.15 9.58 9.58 0 01-3.58 1.31v.08q4.31 0 6.49 1.92a6.18 6.18 0 012.19 4.86 6.63 6.63 0 01-1.21 4 7.85 7.85 0 01-3.29 2.57 12 12 0 01-4.73.89zm6-1.52l1.51.05H678.64a7.61 7.61 0 004.87-1.46 5.18 5.18 0 001.86-4.33 6.1 6.1 0 00-.94-3.61 5 5 0 00-2.47-1.83 9.84 9.84 0 00-3.32-.53h-2.13c-.64 0-1.27.05-1.9.1v10.36a8 8 0 01-.14 1.25zm.12-13.07l2.86-.07a6.57 6.57 0 003.52-.9 4.83 4.83 0 001.85-2.15 6.12 6.12 0 00.53-2.7 4.72 4.72 0 00-1-3.12 4.49 4.49 0 00-2.24-1.45 9.28 9.28 0 00-2.62-.38 4.12 4.12 0 00-1.92.34 1.68 1.68 0 00-.82 1.14 9.78 9.78 0 00-.2 2.21zM706.94 299.39v-1.26a3 3 0 002-.66 2.53 2.53 0 00.6-1.64c0-.7.06-1.49.06-2.38V277v-1.47c0-.47.05-.89.08-1.27l-1.41.07-1.4.08v-1.68l4.43-.07h4.52a19.74 19.74 0 016.12.86 7 7 0 013.42 2.32 6 6 0 011.1 3.64 7.7 7.7 0 01-.57 3 6.44 6.44 0 01-2.19 2.76 11.17 11.17 0 01-4.55 1.83 5.21 5.21 0 011.36 1.37c.4.56.84 1.21 1.33 1.94l2.66 4.08c.45.68.88 1.3 1.29 1.84a5 5 0 001.45 1.3 4 4 0 002 .47v1.26h-4.92a13.92 13.92 0 01-1.9-2c-.51-.66-1-1.41-1.58-2.25l-2.62-4.07c-.34-.53-.73-1.15-1.16-1.85a7.84 7.84 0 00-1.46-1.77h-2.66v9.16a12 12 0 01-.1 1.24c.31 0 .62-.05.94-.06l.94-.06h.93v1.67zm8.52-13.33a12.19 12.19 0 003.78-.68 5.4 5.4 0 002.56-1.95 6 6 0 00.94-3.5 7 7 0 00-.42-2.53 4.18 4.18 0 00-1.27-1.81 5.63 5.63 0 00-2.19-1.09 12 12 0 00-3.13-.36 2.81 2.81 0 00-2 .57 2.35 2.35 0 00-.63 1.58c0 .68-.05 1.47-.05 2.38V286l1.19.07a8.41 8.41 0 001.22-.01zM745.5 299.39v-1.26a2.47 2.47 0 001.8-.61 4.58 4.58 0 001-1.67c.28-.71.59-1.54 1-2.48l8.05-21.37h.93l8.72 21.68c.2.53.44 1.22.7 2.05a5.74 5.74 0 01.31 2.14l1.33-.08 1.33-.07v1.67h-8.95v-1.26a2.47 2.47 0 001.95-.64A1.87 1.87 0 00764 296a6.15 6.15 0 00-.39-1.52l-1.37-3.58-10.16.22-1.37 4.08c-.19.61-.35 1.09-.49 1.45s-.31.75-.49 1.18l1.54-.08 1.51-.07v1.67zm7.19-9.86h9l-2.69-7.28c-.29-.78-.58-1.56-.88-2.34s-.59-1.55-.88-2.34h-.08c-.26.71-.53 1.42-.8 2.13s-.55 1.44-.84 2.17zM78.89 285h361.9v2H78.89zM817.41 285h377.6v2h-377.6z"/></svg>